<svg enable-background="new 0 0 49.9 23.2" height="23.2" viewBox="0 0 49.9 23.2" width="49.9" xmlns="http://www.w3.org/2000/svg"><circle cx="396.9" cy="991.5" r="31"/><path d="m546.9 991.5c0-82.8-67.2-150-150.1-150s-150 67.2-150 150 67.1 150 149.9 150l150.1.2v-150.2zm-75 74.9h-75c-41.4 0-75-33.5-75-74.9s33.6-75 75-75 75 33.6 75 75z"/><circle cx="746.9" cy="991.5" r="31"/><path d="m671.9 991.5c0-41.4 33.7-75 75.1-75s75.2 33 75.2 75h74.7v.1c0-82.8-67-150-149.8-150s-150.2 67.2-150.2 150v150.2l75-.1z"/><circle cx="11.4" cy="11.6" r="2.4"/><path d="m23.9 11.6c0-6.4-5.6-11.5-12-11.5s-11.8 5.1-11.8 11.5 5.5 11.5 11.9 11.5h11.9zm-6 5.8h-6.5c-3.2 0-5.8-2.6-5.8-5.8s2.9-5.8 6.1-5.8 6.1 2.6 6.1 5.8v5.8z"/><circle cx="38.3" cy="11.6" r="2.4"/><path d="m31.9 11.6c0-3.2 2.9-5.9 6.1-5.9s6.1 2.7 6.1 5.7h5.8v.2c0-6.4-5.6-11.5-12-11.5s-12 5.2-12 11.5v11.5h6z"/></svg>