<?xml version="1.0" encoding="UTF-8" standalone="no"?>
<svg width="426px" height="426px" viewBox="0 0 426 426" version="1.1" xmlns="http://www.w3.org/2000/svg" xmlns:xlink="http://www.w3.org/1999/xlink">
    <!-- Generator: Sketch 43.2 (39069) - http://www.bohemiancoding.com/sketch -->
    <title>354_rocket_03_rgb</title>
    <desc>Created with Sketch.</desc>
    <defs></defs>
    <g id="showcase" stroke="none" stroke-width="1" fill="none" fill-rule="evenodd">
        <g id="app-cloud-thumb-medium" transform="translate(-299.000000, -299.000000)" fill="#1781E3">
            <g id="Group">
                <path d="M397.995845,626.008289 C411.854214,639.862485 411.852128,662.330442 397.995845,676.186724 C393.427152,680.755417 387.911341,683.78661 382.084693,685.3408 L322.768871,701.233176 L338.663333,641.91944 C340.217523,636.092792 343.248716,630.576982 347.819495,626.008289 C361.673692,612.152006 384.139562,612.149919 397.995845,626.008289 L397.995845,626.008289 Z M503.038235,635.277103 L606.616139,538.692011 L606.616139,653.927384 L535.653279,724.888158 L503.038235,635.277103 L503.038235,635.277103 Z M388.724944,520.961726 L299.113889,488.348768 L370.076749,417.381735 L485.312123,417.381735 L388.724944,520.961726 L388.724944,520.961726 Z M629.970714,452.564844 C613.805051,468.732594 587.598694,468.732594 571.43303,452.566931 C555.267367,436.399181 555.267367,410.192824 571.43303,394.025074 C587.598694,377.859411 613.805051,377.859411 629.970714,394.025074 C646.136377,410.190738 646.136377,436.399181 629.970714,452.564844 L629.970714,452.564844 Z M555.267367,368.373636 L382.351722,553.810421 C373.696239,563.08758 373.865218,577.611434 382.904554,586.650771 L403.855872,607.602088 L505.729383,505.730663 C509.194496,502.263463 514.810442,502.263463 518.27347,505.730663 C521.738584,509.193691 521.738584,514.809637 518.27347,518.272664 L416.399959,620.146175 L437.353362,641.099579 C446.392699,650.136829 460.916553,650.307894 470.191626,641.650325 L655.624239,468.73468 C702.40849,421.946256 725.48352,360.437879 724.87436,299.123514 C663.559996,298.516441 602.051618,321.589384 555.267367,368.373636 L555.267367,368.373636 Z" id="354_rocket_03_rgb"></path>
            </g>
        </g>
    </g>
</svg>