<?xml version="1.0" encoding="UTF-8"?>
<svg width="218px" height="158px" viewBox="0 0 218 158" version="1.1" xmlns="http://www.w3.org/2000/svg" xmlns:xlink="http://www.w3.org/1999/xlink">
    <!-- Generator: Sketch 58 (84663) - https://sketch.com -->
    <title>Group 18</title>
    <desc>Created with Sketch.</desc>
    <defs>
        <radialGradient cx="11.2371377%" cy="22.445886%" fx="11.2371377%" fy="22.445886%" r="138.013645%" gradientTransform="translate(0.112371,0.224459),scale(1.000000,0.630916),translate(-0.112371,-0.224459)" id="radialGradient-1">
            <stop stop-color="#42B4F3" stop-opacity="0.9804" offset="0%"></stop>
            <stop stop-color="#003A80" offset="100%"></stop>
        </radialGradient>
        <radialGradient cx="86.9254535%" cy="42.5123278%" fx="86.9254535%" fy="42.5123278%" r="83.7503688%" gradientTransform="translate(0.869255,0.425123),scale(1.000000,0.558751),translate(-0.869255,-0.425123)" id="radialGradient-2">
            <stop stop-color="#5BC0FF" stop-opacity="0.9804" offset="0%"></stop>
            <stop stop-color="#003789" offset="100%"></stop>
        </radialGradient>
        <radialGradient cx="71.1760154%" cy="27.916907%" fx="71.1760154%" fy="27.916907%" r="134.814611%" gradientTransform="translate(0.711760,0.279169),scale(1.000000,0.452061),translate(-0.711760,-0.279169)" id="radialGradient-3">
            <stop stop-color="#5FC7FF" offset="0%"></stop>
            <stop stop-color="#003785" stop-opacity="0.9804" offset="100%"></stop>
        </radialGradient>
        <radialGradient cx="46.7925858%" cy="19.8566318%" fx="46.7925858%" fy="19.8566318%" r="113.676922%" gradientTransform="translate(0.467926,0.198566),scale(1.000000,0.845593),translate(-0.467926,-0.198566)" id="radialGradient-4">
            <stop stop-color="#EC0A1C" offset="0%"></stop>
            <stop stop-color="#BB0E15" offset="100%"></stop>
        </radialGradient>
        <radialGradient cx="29.8243147%" cy="20.3845518%" fx="29.8243147%" fy="20.3845518%" r="162.326387%" gradientTransform="translate(0.298243,0.203846),scale(1.000000,0.413431),translate(-0.298243,-0.203846)" id="radialGradient-5">
            <stop stop-color="#EC0A1C" offset="0%"></stop>
            <stop stop-color="#9E0D18" offset="100%"></stop>
        </radialGradient>
        <linearGradient x1="58.0137542%" y1="100.995852%" x2="46.3180249%" y2="-0.025896861%" id="linearGradient-6">
            <stop stop-color="#320000" offset="0%"></stop>
            <stop stop-color="#5D0000" offset="100%"></stop>
        </linearGradient>
        <radialGradient cx="94.0234998%" cy="91.8759156%" fx="94.0234998%" fy="91.8759156%" r="201.584011%" gradientTransform="translate(0.940235,0.918759),scale(1.000000,0.476911),translate(-0.940235,-0.918759)" id="radialGradient-7">
            <stop stop-color="#003789" offset="0%"></stop>
            <stop stop-color="#5FC7FF" stop-opacity="0.9804" offset="100%"></stop>
        </radialGradient>
    </defs>
    <g id="Showcase" stroke="none" stroke-width="1" fill="none" fill-rule="evenodd">
        <g id="Artboard" transform="translate(-644.000000, -234.000000)">
            <g id="Group-18" transform="translate(644.910000, 234.000000)">
                <g id="Swisscom-/-Lifeform" transform="translate(64.134589, 0.000000)">
                    <g id="Swisscom_Lifeform">
                        <path d="M22.5188482,89.4478599 C23.4942408,90.3385214 24.5120419,91.1867704 25.5722513,91.9501946 C26.2931937,92.459144 27.0565445,92.9680934 27.8198953,93.4346304 C28.8376963,94.0708171 29.8979058,94.6645914 30.9581152,95.2159533 C32.4,95.9793774 34.6900524,96.9972763 36.1319372,97.5910506 C35.8350785,97.1245136 35.6230366,96.8276265 35.326178,96.318677 C34.6052356,95.5128405 33.9267016,94.7070039 33.2905759,93.6042802 C32.7816754,92.7136187 32.2727749,91.6533074 31.8062827,90.211284 C31.5094241,89.3206226 31.1701571,88.3027237 30.8732984,87.2 C30.6612565,86.4365759 30.4492147,85.6307393 30.2795812,84.7400778 C30.2371728,84.570428 30.1099476,83.9342412 30.0675393,83.7645914 C29.8979058,82.87393 29.7282723,82.0680934 29.5162304,81.2622568 C29.3465969,80.4564202 29.134555,79.6929961 28.8801047,78.929572 C28.4560209,77.6996109 28.0319372,76.5544747 27.5230366,75.451751 C26.9293194,74.0945525 26.2931937,72.822179 25.5722513,71.6770428 C25.1057592,70.9136187 23.9183246,69.3019455 23.3670157,68.6233463 C22.9429319,68.1143969 22.6036649,67.6902724 22.2219895,67.2661479 C21.9251309,66.9692607 21.6282723,66.6299611 21.2890052,66.2058366 C20.8649215,65.7392996 20.3984293,65.2727626 19.9743455,64.8486381 C19.9319372,64.8062257 19.9743455,64.8486381 19.8895288,64.8910506 C18.9989529,66.0361868 18.1931937,67.181323 17.5146597,68.411284 C16.9633508,69.3867704 16.4968586,70.4046693 16.1575916,71.4649805 C15.9455497,72.0587549 15.8183246,72.6525292 15.6910995,73.288716 C15.5638743,73.9249027 15.521466,74.5610895 15.4790576,75.1972763 C15.4366492,76.0031128 15.4790576,76.8089494 15.6062827,77.6571984 C15.7335079,78.5054475 15.9455497,79.3961089 16.2848168,80.3291829 C16.6664921,81.3894942 17.1753927,82.4498054 17.8115183,83.5525292 C17.8963351,83.6797665 17.9811518,83.8494163 18.0659686,83.9766537 C19.2109948,86.0124514 20.7801047,87.7937743 22.5188482,89.4478599 L22.5188482,89.4478599 Z" id="Shape" fill="url(#radialGradient-1)"></path>
                        <path d="M36.1319372,108.703113 C38.0827225,108.533463 40.160733,108.278988 42.2811518,107.897276 C44.9104712,107.430739 47.582199,106.75214 50.2963351,105.903891 C52.5863874,105.182879 54.8340314,104.33463 57.0816754,103.359144 C59.0748691,102.468482 61.0256545,101.492996 62.891623,100.432685 C65.3089005,99.0330739 67.6413613,97.4214008 69.7193717,95.6400778 C72.1366492,93.5618677 74.2570681,91.2715953 75.9958115,88.7268482 C77.8193717,86.0548638 79.1764398,83.0859922 80.0246073,79.8626459 C80.4910995,78.081323 80.7455497,76.2575875 80.8303665,74.3066148 C80.9151832,72.1435798 80.7031414,70.0653696 80.1942408,68.029572 C79.5157068,65.3151751 78.3282723,62.6856031 76.7167539,60.140856 C74.7235602,56.9175097 72.0518325,53.8214008 68.9984293,50.8101167 C65.9026178,47.7140078 62.3827225,44.7027237 58.6507853,41.6490272 C56.360733,39.7828794 54.0282723,37.9167315 51.6534031,36.0081712 C49.8298429,34.5661479 48.0062827,33.0817121 46.1403141,31.5548638 C44.104712,29.8583658 42.0691099,28.1618677 40.0759162,26.4229572 C38.3371728,24.8536965 36.6408377,23.3268482 34.986911,21.7575875 C34.4356021,21.2486381 33.9267016,20.6972763 33.3753927,20.1883268 C31.6790576,18.4918288 30.0251309,16.6680934 28.2863874,14.6322957 C29.2617801,16.0743191 30.7884817,18.2373541 32.2727749,20.4428016 C33.2905759,22.0120623 34.308377,23.581323 35.0293194,24.9809339 C35.3685864,25.6171206 35.6230366,26.2533074 35.8350785,26.8046693 C36.004712,27.3136187 36.1319372,27.7377432 36.1319372,28.1194553 L36.1319372,30.1128405 L36.1319372,46.2719844 L36.1319372,59.6743191 L36.1319372,77.0210117 L36.1319372,98.2272374 C36.1319372,103.910506 36.1319372,108.703113 36.1319372,108.703113 L36.1319372,108.703113 Z" id="Shape" fill="url(#radialGradient-2)"></path>
                        <path d="M36.1319372,97.5910506 C36.1319372,97.5910506 39.7790576,93.307393 40.7968586,92.0774319 C41.4753927,91.2715953 43.0020942,89.3206226 44.4439791,87.4544747 C45.8434555,85.6307393 47.1581152,83.8918288 47.582199,83.3404669 C47.7518325,83.0859922 50.0418848,79.8202335 50.2539267,79.5233463 C51.3565445,77.9540856 50.5507853,79.0568093 51.186911,78.2509728 C51.4413613,77.8692607 51.5685864,77.7844358 53.1801047,75.3245136 C53.3497382,75.0700389 53.6465969,74.5610895 53.9010471,74.1793774 C54.0282723,73.9249027 55.3853403,71.7618677 55.5125654,71.5922179 C55.7670157,71.1680934 56.021466,70.7439689 56.2335079,70.3622568 C56.8696335,69.2171206 57.3361257,68.3264591 57.8450262,67.3933852 C58.9900524,65.2727626 59.5837696,64.2548638 60.6015707,62.0070039 C61.3225131,60.4377432 62.1282723,58.6140078 62.6371728,57.2568093 C63.0188482,56.3237354 63.5701571,54.8392996 63.8246073,54.033463 C64.0366492,53.4821012 64.5031414,51.9976654 64.8,51.0645914 C65.3089005,49.3256809 65.6057592,48.1805447 65.6905759,47.7140078 C65.7329843,47.544358 65.4361257,46.4416342 65.4361257,46.4416342 C64.2486911,45.4237354 62.5947644,43.9817121 61.4921466,43.0910506 C61.0680628,42.7093385 57.7602094,39.9949416 57.2089005,39.5284047 C55.0884817,37.7894942 51.9926702,35.2871595 49.7450262,33.4634241 C47.4125654,31.5972763 45.9706806,30.4097276 43.8078534,28.6284047 C35.9198953,22.1392996 32.060733,17.7708171 27.904712,13.9961089 C29.9827225,18.7038911 35.2837696,25.4474708 35.2837696,30.1128405 L35.2837696,36.3050584 L35.2837696,44.0241245 L35.2837696,52.7610895 L35.2837696,62.388716 L35.2837696,69.72607 L35.2837696,72.5677043 L35.2837696,96.2762646 C35.2837696,96.318677 35.5806283,96.7428016 36.1319372,97.5910506 L36.1319372,97.5910506 Z" id="Shape" fill="url(#radialGradient-3)"></path>
                        <path d="M41.3057592,27.4832685 C41.6874346,27.8225681 41.9842932,28.0770428 42.8748691,28.7980545 C43.2565445,29.0949416 44.1895288,29.9007782 44.5287958,30.1976654 C45.2073298,30.7490272 47.6670157,32.7424125 47.921466,32.9968872 C48.0062827,33.0817121 48.1759162,33.2089494 48.3879581,33.3785992 C49.7874346,34.5237354 53.434555,37.4501946 54.5371728,38.340856 C54.5371728,38.340856 54.5795812,38.3832685 54.6643979,38.4680934 C55.5125654,39.1466926 59.7534031,42.5821012 61.873822,44.3634241 C63.8246073,46.0175097 65.5209424,47.5867704 65.6905759,47.7140078 C66.1146597,45.763035 66.4115183,43.8544747 66.6235602,42.0731518 C66.8780105,39.5708171 66.9204188,37.1957198 66.708377,35.0326848 C66.4115183,31.3003891 65.478534,28.0346304 64.1638743,25.1929961 C62.8492147,22.3513619 61.1104712,19.9762646 59.1172775,17.9828794 C58.9052356,17.7708171 58.6931937,17.5587549 58.4811518,17.3891051 C57.2937173,16.2863813 56.0638743,15.3108949 54.7068063,14.4626459 C53.3921466,13.6143969 51.9926702,12.8933852 50.5507853,12.2571984 C47.9638743,11.1968872 45.3769634,10.5607004 43.0445026,10.3910506 C40.2031414,10.1789883 37.573822,10.6455253 35.8774869,11.5785992 C35.5382199,11.748249 35.2413613,11.8754864 35.2413613,11.8754864 L35.2413613,15.9894942 L35.2413613,22.0968872 C35.326178,22.1817121 36.0471204,22.8178988 36.0471204,22.8603113 C37.3193717,24.0478599 38.8460733,25.4474708 39.6094241,26.12607 C40.2455497,26.5501946 40.7544503,27.0167315 41.3057592,27.4832685 L41.3057592,27.4832685 Z" id="Shape" fill="url(#radialGradient-4)"></path>
                        <path d="M30.4068063,88.5996109 C30.5340314,89.0661479 30.7036649,89.5750973 30.8732984,90.0416342 C31.1277487,90.7626459 31.382199,91.4412451 31.6366492,92.1622568 C32.1031414,93.2225681 32.6120419,94.2828794 33.2905759,95.2159533 C33.7994764,95.936965 34.3931937,96.5731518 35.1141361,97.0821012 C35.4109948,97.2941634 35.7502618,97.4638132 36.1319372,97.633463 L36.1319372,78.1661479 C36.1319372,78.1661479 35.9198953,78.1237354 35.7502618,78.081323 C35.5806283,78.0389105 35.326178,77.9540856 35.326178,77.9540856 L35.326178,53.8638132 L35.326178,32.9120623 L35.326178,30.1976654 C35.326178,29.0525292 36.1319372,28.1194553 36.1319372,28.1194553 C36.1319372,28.1618677 36.1319372,28.1194553 36.1319372,28.1194553 C36.1319372,27.7801556 35.9623037,27.1863813 35.8774869,26.9319066 C35.5806283,26.12607 35.1989529,25.3202335 34.8172775,24.5568093 C34.5628272,24.1326848 34.8172775,24.5568093 34.5628272,24.1326848 C33.8842932,23.0299611 32.6968586,21.0365759 31.9759162,19.9762646 C30.9157068,18.3645914 31.1277487,18.7038911 30.0675393,17.1346304 C29.6858639,16.5832685 28.9225131,15.4381323 28.5408377,14.844358 C27.9895288,13.9961089 27.226178,11.1968872 26.8445026,10.2638132 C25.6994764,11.1120623 23.9183246,12.4692607 22.7732984,13.3175097 C20.0591623,15.3108949 17.3026178,17.3042802 14.6732984,19.3824903 C12.934555,20.7396887 11.2382199,22.1817121 9.58429319,23.7085603 C8.05759162,25.1081712 6.4460733,26.6774319 5.04659686,28.37393 C2.41727749,31.5124514 0.339267016,35.1599222 0.042408377,39.2315175 C2.91277419e-14,39.9101167 2.91277419e-14,40.588716 0.042408377,41.2249027 C0.0848167539,41.9459144 0.169633508,42.6245136 0.339267016,43.3031128 C0.848167539,45.8902724 1.99319372,48.1381323 3.47748691,50.0891051 C5.13141361,52.2945525 7.20942408,54.2455253 9.32984293,56.1116732 C9.71151832,56.4085603 10.0507853,56.7478599 10.4324607,57.0447471 C12.934555,59.2077821 15.4790576,61.3284047 17.8539267,63.618677 C21.2890052,66.9268482 24.4272251,70.6167315 26.6324607,75.1548638 C28.4560209,79.4385214 29.0497382,84.1038911 30.4068063,88.5996109 L30.4068063,88.5996109 Z" id="Shape" fill="url(#radialGradient-5)"></path>
                        <path d="M36.1319372,28.0770428 L36.1319372,28.0770428 C33.4602094,28.4163424 31.6790576,29.9431907 30.6188482,32.3607004 C29.6434555,34.5237354 29.134555,36.9412451 27.6926702,38.8922179 C24.7240838,42.9638132 17.0057592,42.0307393 15.8183246,47.6291829 C14.0795812,55.8571984 24.8089005,57.5961089 27.9471204,63.3217899 C30.2795812,67.5206226 29.134555,74.0945525 33.5450262,77.0634241 C34.2235602,77.5299611 34.986911,77.8268482 35.7502618,78.0389105 C36.0471204,78.1237354 36.0895288,78.1237354 36.1743455,78.1237354 C36.1319372,78.081323 36.1319372,28.0770428 36.1319372,28.0770428 L36.1319372,28.0770428 Z" id="Shape" fill="#FFFFFF"></path>
                        <path d="M36.1319372,78.1237354 C36.004712,78.081323 35.8774869,78.081323 35.7078534,78.0389105 C34.9445026,77.8268482 34.1811518,77.5299611 33.5026178,77.0634241 C29.0921466,74.0945525 30.2371728,67.5206226 27.904712,63.3217899 C27.1837696,62.0070039 25.9963351,60.8618677 24.7240838,59.8439689 C24.6816754,59.8015564 24.639267,59.759144 24.5968586,59.759144 C24.0879581,60.2680934 23.3246073,61.07393 22.0947644,62.3038911 C20.695288,63.7035019 19.4230366,65.3575875 19.4230366,65.3575875 L19.4230366,65.3575875 C22.1795812,68.1992218 24.5968586,71.3801556 26.4204188,75.1548638 C28.5832461,79.9050584 29.134555,85.1217899 30.7884817,90.0840467 C31.382199,91.9077821 32.1455497,93.7315175 33.2481675,95.2583658 C33.9691099,96.2338521 34.8172775,97.0821012 36.0895288,97.5910506 L36.0895288,78.3357977 L36.0895288,78.1237354 L36.1319372,78.1237354 L36.1319372,78.1237354 L36.1319372,78.1237354 Z" id="Shape" fill="url(#linearGradient-6)"></path>
                        <path d="M30.9581152,17.6011673 C31.4246073,18.1101167 32.0183246,18.7463035 32.5696335,19.2976654 C33.2481675,19.9762646 33.8418848,20.6124514 34.6052356,21.333463 C35.0717277,21.8 35.665445,22.3513619 36.1743455,22.8178988 L36.1743455,15.8622568 L36.1743455,7.97354086 L36.1743455,0.339299611 C35.8350785,0.254474708 35.2837696,0.212062257 34.6052356,0.254474708 C33.5026178,0.29688716 32.060733,0.551361868 30.6612565,1.06031128 C29.5586387,1.4844358 28.4560209,2.03579767 27.565445,2.79922179 C26.547644,3.64747082 25.8267016,4.75019455 25.5298429,6.107393 C25.2329843,7.54941634 25.4450262,9.28832685 26.4204188,11.366537 C26.886911,12.3420233 27.6078534,13.6143969 28.2863874,14.5474708 C28.3287958,14.5898833 28.8376963,15.1836576 29.134555,15.5229572 C29.6434555,16.2015564 30.2795812,16.9225681 30.9581152,17.6011673 L30.9581152,17.6011673 Z" id="Shape" fill="url(#radialGradient-7)"></path>
                    </g>
                </g>
                <path d="M117.022679,135.376034 C115.526499,134.841684 113.175358,134.200464 111.251698,134.200464 C109.007427,134.200464 107.297507,134.734814 107.297507,136.765345 C107.297507,141.467626 119.58756,138.582135 119.58756,148.414178 C119.58756,155.040119 114.244058,157.605 108.152467,157.605 C105.373846,157.605 102.595225,157.17752 100.030345,156.42943 L100.457825,150.658448 C100.457825,150.658448 104.412016,152.047759 107.831857,152.047759 C110.182997,152.047759 112.106658,151.299668 112.106658,149.269138 C112.106658,144.139377 99.8166048,147.452347 99.8166048,137.727175 C99.8166048,131.635584 104.946366,129.177573 110.610477,129.177573 C113.923448,129.177573 116.702069,129.818793 118.305119,130.353143 L117.022679,135.376034 L117.022679,135.376034 Z M94.6868435,135.376034 C93.0837931,134.841684 90.8395225,134.200464 88.9158621,134.200464 C86.6715915,134.200464 84.9616711,134.734814 84.9616711,136.765345 C84.9616711,141.467626 97.2517241,138.582135 97.2517241,148.414178 C97.2517241,155.040119 91.8013528,157.605 85.8166313,157.605 C83.0380106,157.605 80.2593899,157.17752 77.5876393,156.42943 L78.1219894,150.658448 C78.1219894,150.658448 82.1830504,152.047759 85.4960212,152.047759 C87.7402918,152.047759 89.7708223,151.299668 89.7708223,149.269138 C89.7708223,144.139377 77.4807692,147.452347 77.4807692,137.727175 C77.4807692,131.635584 82.7174005,129.177573 88.2746419,129.177573 C91.5876127,129.177573 94.3662334,129.818793 96.0761538,130.353143 L94.6868435,135.376034 L94.6868435,135.376034 Z M207.755332,128.856963 C213.098833,128.856963 216.198064,131.742454 216.198064,138.047785 L216.198064,156.96378 L209.144642,156.96378 L209.144642,139.437095 C209.144642,136.551605 208.289682,134.734814 205.297321,134.734814 C202.30496,134.734814 199.63321,137.406565 199.63321,142.108846 L199.63321,156.96378 L192.686658,156.96378 L192.686658,139.437095 C192.686658,136.765345 191.831698,134.734814 188.839337,134.734814 C185.633236,134.734814 183.175225,137.620305 183.175225,142.429456 L183.175225,156.96378 L176.014934,156.96378 L176.014934,129.498183 C180.717215,128.963833 182.534005,130.887493 182.640875,133.879854 C184.350796,130.780623 187.343156,128.856963 191.190477,128.856963 C196.106499,128.856963 198.137029,131.635584 198.778249,134.200464 C200.06069,131.421844 203.05305,128.856963 207.755332,128.856963 L207.755332,128.856963 L207.755332,128.856963 Z M63.0533156,129.391313 C61.5571353,137.513435 57.6029443,150.444708 55.0380637,156.85691 L47.5571618,156.85691 L42.3205305,138.475265 L42.2136605,138.475265 L36.9770292,156.85691 L29.4961273,156.85691 C27.1449867,150.444708 22.7633156,137.192825 21.4808753,129.391313 L28.5342971,129.391313 L33.2365782,148.307308 L33.3434483,148.307308 L38.9006897,129.391313 L45.9541114,129.391313 L51.4044828,148.200438 L51.5113528,148.200438 L56.213634,129.391313 L63.0533156,129.391313 L63.0533156,129.391313 Z M17.2060743,135.376034 C15.7098939,134.841684 13.3587533,134.200464 11.4350928,134.200464 C9.19082228,134.200464 7.58777188,134.734814 7.58777188,136.765345 C7.58777188,141.467626 19.7709549,138.582135 19.7709549,148.414178 C19.7709549,155.040119 14.4274536,157.605 8.33586207,157.605 C5.55724138,157.605 2.77862069,157.17752 0.213740053,156.42943 L0.641220159,150.658448 C0.641220159,150.658448 4.70228117,152.047759 8.01525199,152.047759 C10.3663926,152.047759 12.2900531,151.299668 12.2900531,149.269138 C12.2900531,144.139377 1.27897692e-13,147.452347 1.27897692e-13,137.727175 C1.27897692e-13,131.635584 5.12976127,129.177573 10.7938727,129.177573 C14.1068435,129.177573 16.8854642,129.818793 18.4885146,130.353143 L17.2060743,135.376034 L17.2060743,135.376034 Z M158.381379,157.49813 C150.579867,157.49813 145.129496,153.223329 145.129496,143.605027 C145.129496,135.055424 150.900477,128.856963 159.23634,128.856963 C167.037851,128.856963 172.060743,133.238634 172.060743,142.536326 C172.060743,151.513408 166.610371,157.49813 158.381379,157.49813 L158.381379,157.49813 L158.381379,157.49813 Z M158.701989,134.948554 C155.495889,134.948554 152.503528,137.299695 152.503528,143.391286 C152.503528,148.627918 154.427188,151.513408 158.595119,151.513408 C162.12183,151.513408 164.793581,148.627918 164.793581,143.070676 C164.793581,137.727175 162.86992,134.948554 158.701989,134.948554 L158.701989,134.948554 L158.701989,134.948554 Z M66.2594164,156.96378 L73.3128382,156.96378 L73.3128382,129.498183 C69.9998674,129.177573 66.2594164,130.032533 66.2594164,135.269164 L66.2594164,156.96378 L66.2594164,156.96378 Z M70.1067374,125.971472 C72.564748,125.971472 74.5952785,124.047812 74.5952785,121.589801 C74.5952785,119.23866 72.564748,117.315 70.1067374,117.315 C67.7555968,117.315 65.7250663,119.13179 65.7250663,121.589801 C65.7250663,124.047812 67.7555968,125.971472 70.1067374,125.971472 L70.1067374,125.971472 L70.1067374,125.971472 Z M135.938674,157.39126 C127.816552,157.39126 122.47305,153.330199 122.47305,143.605027 C122.47305,135.376034 127.068462,128.963833 137.114244,128.963833 C139.251645,128.963833 142.030265,129.391313 143.847056,130.139403 L142.350875,135.910385 C140.747825,135.376034 139.144775,134.948554 137.327984,134.948554 C132.198223,134.948554 130.060822,138.261525 130.060822,143.391286 C130.060822,148.307308 131.984483,151.513408 137.007374,151.513408 C139.358515,151.513408 140.961565,150.979058 142.564615,150.337838 L143.419576,156.00195 C141.923395,156.75004 139.037905,157.39126 135.938674,157.39126 L135.938674,157.39126 Z" id="Wordmark" fill="#001155"></path>
            </g>
        </g>
    </g>
</svg>