<?xml version="1.0" encoding="UTF-8"?>
<svg width="935px" height="273px" viewBox="0 0 935 273" version="1.1" xmlns="http://www.w3.org/2000/svg" xmlns:xlink="http://www.w3.org/1999/xlink">
    <!-- Generator: Sketch 58 (84663) - https://sketch.com -->
    <title>Brandmark</title>
    <desc>Created with Sketch.</desc>
    <defs>
        <radialGradient cx="11.2371377%" cy="22.445886%" fx="11.2371377%" fy="22.445886%" r="138.013645%" gradientTransform="translate(0.112371,0.224459),scale(1.000000,0.637535),translate(-0.112371,-0.224459)" id="radialGradient-1">
            <stop stop-color="#42B4F3" stop-opacity="0.9804" offset="0%"></stop>
            <stop stop-color="#003A80" offset="100%"></stop>
        </radialGradient>
        <radialGradient cx="86.9254535%" cy="42.5123278%" fx="86.9254535%" fy="42.5123278%" r="83.7503688%" gradientTransform="translate(0.869255,0.425123),scale(1.000000,0.564613),translate(-0.869255,-0.425123)" id="radialGradient-2">
            <stop stop-color="#5BC0FF" stop-opacity="0.9804" offset="0%"></stop>
            <stop stop-color="#003789" offset="100%"></stop>
        </radialGradient>
        <radialGradient cx="71.1760154%" cy="27.916907%" fx="71.1760154%" fy="27.916907%" r="134.814611%" gradientTransform="translate(0.711760,0.279169),scale(1.000000,0.456804),translate(-0.711760,-0.279169)" id="radialGradient-3">
            <stop stop-color="#5FC7FF" offset="0%"></stop>
            <stop stop-color="#003785" stop-opacity="0.9804" offset="100%"></stop>
        </radialGradient>
        <radialGradient cx="46.7925858%" cy="19.8566318%" fx="46.7925858%" fy="19.8566318%" r="113.676922%" gradientTransform="translate(0.467926,0.198566),scale(1.000000,0.854465),translate(-0.467926,-0.198566)" id="radialGradient-4">
            <stop stop-color="#EC0A1C" offset="0%"></stop>
            <stop stop-color="#BB0E15" offset="100%"></stop>
        </radialGradient>
        <radialGradient cx="29.8243147%" cy="20.3845518%" fx="29.8243147%" fy="20.3845518%" r="162.326387%" gradientTransform="translate(0.298243,0.203846),scale(1.000000,0.417769),translate(-0.298243,-0.203846)" id="radialGradient-5">
            <stop stop-color="#EC0A1C" offset="0%"></stop>
            <stop stop-color="#9E0D18" offset="100%"></stop>
        </radialGradient>
        <linearGradient x1="58.18279%" y1="100.995852%" x2="46.2403602%" y2="-0.025896861%" id="linearGradient-6">
            <stop stop-color="#320000" offset="0%"></stop>
            <stop stop-color="#5D0000" offset="100%"></stop>
        </linearGradient>
        <radialGradient cx="94.0234998%" cy="91.8759156%" fx="94.0234998%" fy="91.8759156%" r="201.584011%" gradientTransform="translate(0.940235,0.918759),scale(1.000000,0.481914),translate(-0.940235,-0.918759)" id="radialGradient-7">
            <stop stop-color="#003789" offset="0%"></stop>
            <stop stop-color="#5FC7FF" stop-opacity="0.9804" offset="100%"></stop>
        </radialGradient>
    </defs>
    <g id="Showcase" stroke="none" stroke-width="1" fill="none" fill-rule="evenodd">
        <g id="Artboard" transform="translate(-399.000000, -1260.000000)" fill="#000000">
            <g id="Swisscom-/-Brandmark" transform="translate(398.975000, 1260.000000)">
                <rect id="Rectangle" fill="none" x="0" y="0" width="935" height="273"></rect>
                <g id="Swisscom-/-Lifeform" fill="none" stroke-width="1">
                    <g id="Swisscom_Lifeform">
                        <path d="M56.9921466,224.029961 C59.460733,226.2607 62.0366492,228.385214 64.7198953,230.297276 C66.5445026,231.571984 68.4764398,232.846693 70.408377,234.015175 C72.9842932,235.60856 75.6675393,237.09572 78.3507853,238.476654 C82,240.388716 87.7958115,242.938132 91.4450262,244.425292 C90.6937173,243.256809 90.1570681,242.51323 89.4057592,241.238521 C87.5811518,239.220233 85.8638743,237.201946 84.2539267,234.440078 C82.9659686,232.209339 81.6780105,229.553696 80.4973822,225.942023 C79.7460733,223.711284 78.8874346,221.161868 78.1361257,218.4 C77.5994764,216.487938 77.0628272,214.46965 76.6335079,212.238911 C76.526178,211.814008 76.2041885,210.220623 76.0968586,209.79572 C75.6675393,207.564981 75.2382199,205.546693 74.7015707,203.528405 C74.2722513,201.510117 73.7356021,199.598054 73.091623,197.685992 C72.0183246,194.605447 70.9450262,191.737354 69.6570681,188.975486 C68.1544503,185.576265 66.5445026,182.389494 64.7198953,179.521401 C63.539267,177.609339 60.5340314,173.572763 59.1387435,171.873152 C58.065445,170.598444 57.2068063,169.536187 56.2408377,168.47393 C55.4895288,167.73035 54.7382199,166.880545 53.8795812,165.818288 C52.8062827,164.649805 51.6256545,163.481323 50.552356,162.419066 C50.4450262,162.31284 50.552356,162.419066 50.3376963,162.525292 C48.0837696,165.393385 46.0445026,168.261479 44.3272251,171.342023 C42.9319372,173.785214 41.7513089,176.33463 40.8926702,178.990272 C40.3560209,180.477432 40.0340314,181.964591 39.7120419,183.557977 C39.3900524,185.151362 39.2827225,186.744747 39.1753927,188.338132 C39.0680628,190.35642 39.1753927,192.374708 39.4973822,194.499222 C39.8193717,196.623735 40.3560209,198.854475 41.2146597,201.19144 C42.1806283,203.847082 43.4685864,206.502724 45.078534,209.264591 C45.2931937,209.583268 45.5078534,210.008171 45.7225131,210.326848 C48.6204188,215.425681 52.591623,219.88716 56.9921466,224.029961 L56.9921466,224.029961 Z" id="Shape" fill="url(#radialGradient-1)"></path>
                        <path d="M91.4450262,272.25642 C96.382199,271.831518 101.641361,271.194163 107.007853,270.238132 C113.662304,269.06965 120.424084,267.370039 127.293194,265.245525 C133.089005,263.439689 138.777487,261.315175 144.465969,258.871984 C149.510471,256.641245 154.447644,254.198054 159.170157,251.542412 C165.287958,248.036965 171.191099,244.000389 176.450262,239.538911 C182.568063,234.333852 187.934555,228.597665 192.335079,222.224125 C196.950262,215.531907 200.384817,208.096109 202.531414,200.022957 C203.712042,195.561479 204.356021,190.993774 204.570681,186.107393 C204.78534,180.689883 204.248691,175.484825 202.960733,170.385992 C201.243455,163.587549 198.23822,157.001556 194.159686,150.628016 C189.115183,142.554864 182.353403,134.800389 174.625654,127.258366 C166.790576,119.503891 157.882199,111.961868 148.437173,104.313619 C142.641361,99.6396887 136.73822,94.9657588 130.727749,90.1856031 C126.112565,86.57393 121.497382,82.8560311 116.774869,79.0319066 C111.623037,74.7828794 106.471204,70.5338521 101.426702,66.1785992 C97.026178,62.248249 92.7329843,58.4241245 88.5471204,54.4937743 C87.1518325,53.2190661 85.8638743,51.8381323 84.4685864,50.5634241 C80.1753927,46.3143969 75.9895288,41.7466926 71.5890052,36.6478599 C74.0575916,40.2595331 77.921466,45.6770428 81.6780105,51.2007782 C84.2539267,55.1311284 86.8298429,59.0614786 88.6544503,62.5669261 C89.513089,64.1603113 90.1570681,65.7536965 90.6937173,67.1346304 C91.1230366,68.4093385 91.4450262,69.4715953 91.4450262,70.4276265 L91.4450262,75.4202335 L91.4450262,115.892218 L91.4450262,149.459533 L91.4450262,192.905837 L91.4450262,246.018677 C91.4450262,260.252918 91.4450262,272.25642 91.4450262,272.25642 L91.4450262,272.25642 Z" id="Shape" fill="url(#radialGradient-2)"></path>
                        <path d="M91.4450262,244.425292 C91.4450262,244.425292 100.675393,233.696498 103.251309,230.615953 C104.968586,228.597665 108.832461,223.711284 112.481675,219.037354 C116.02356,214.46965 119.350785,210.114397 120.424084,208.733463 C120.853403,208.096109 126.649215,199.916732 127.185864,199.173152 C129.97644,195.242802 127.937173,198.004669 129.54712,195.986381 C130.191099,195.03035 130.513089,194.817899 134.591623,188.656809 C135.020942,188.019455 135.772251,186.744747 136.41623,185.788716 C136.73822,185.151362 140.172775,179.733852 140.494764,179.308949 C141.138743,178.246693 141.782723,177.184436 142.319372,176.228405 C143.929319,173.360311 145.109948,171.129572 146.397906,168.792607 C149.295812,163.481323 150.798429,160.931907 153.374346,155.301946 C155.198953,151.371595 157.23822,146.803891 158.526178,143.404669 C159.492147,141.067704 160.887435,137.349805 161.531414,135.331518 C162.068063,133.950584 163.248691,130.232685 164,127.89572 C165.287958,123.540467 166.039267,120.672374 166.253927,119.503891 C166.361257,119.078988 165.609948,116.317121 165.609948,116.317121 C162.604712,113.767704 158.418848,110.156031 155.628272,107.925292 C154.554974,106.969261 146.183246,100.170817 144.787958,99.0023346 C139.421466,94.6470817 131.586387,88.3797665 125.897906,83.8120623 C119.994764,79.1381323 116.34555,76.1638132 110.871728,71.7023346 C90.908377,55.4498054 81.1413613,44.5085603 70.6230366,35.0544747 C75.882199,46.8455253 89.2984293,63.7354086 89.2984293,75.4202335 L89.2984293,90.9291829 L89.2984293,110.262257 L89.2984293,132.144747 L89.2984293,156.257977 L89.2984293,174.635019 L89.2984293,181.75214 L89.2984293,241.132296 C89.2984293,241.238521 90.0497382,242.300778 91.4450262,244.425292 L91.4450262,244.425292 Z" id="Shape" fill="url(#radialGradient-3)"></path>
                        <path d="M104.539267,68.8342412 C105.505236,69.6840467 106.256545,70.3214008 108.510471,72.1272374 C109.47644,72.8708171 111.837696,74.8891051 112.696335,75.6326848 C114.413613,77.0136187 120.638743,82.0062257 121.282723,82.6435798 C121.497382,82.8560311 121.926702,83.1747082 122.463351,83.5996109 C126.005236,86.4677043 135.235602,93.7972763 138.026178,96.0280156 C138.026178,96.0280156 138.133508,96.1342412 138.348168,96.3466926 C140.494764,98.0463035 151.227749,106.650584 156.594241,111.112062 C161.531414,115.254864 165.824607,119.185214 166.253927,119.503891 C167.327225,114.61751 168.078534,109.837354 168.615183,105.375875 C169.259162,99.1085603 169.366492,93.1599222 168.829843,87.7424125 C168.078534,78.3945525 165.717277,70.2151751 162.390052,63.0980545 C159.062827,55.9809339 154.662304,50.0322957 149.617801,45.0396887 C149.081152,44.5085603 148.544503,43.9774319 148.007853,43.5525292 C145.002618,40.7906615 141.890052,38.3474708 138.455497,36.2229572 C135.128272,34.0984436 131.586387,32.292607 127.937173,30.6992218 C121.390052,28.0435798 114.842932,26.4501946 108.939791,26.0252918 C101.748691,25.4941634 95.0942408,26.6626459 90.8010471,28.9996109 C89.9424084,29.4245136 89.1910995,29.7431907 89.1910995,29.7431907 L89.1910995,40.0470817 L89.1910995,55.3435798 C89.4057592,55.5560311 91.2303665,57.1494163 91.2303665,57.255642 C94.4502618,60.2299611 98.3141361,63.7354086 100.246073,65.4350195 C101.856021,66.4972763 103.143979,67.6657588 104.539267,68.8342412 L104.539267,68.8342412 Z" id="Shape" fill="url(#radialGradient-4)"></path>
                        <path d="M76.9554974,221.905447 C77.2774869,223.07393 77.7068063,224.348638 78.1361257,225.517121 C78.7801047,227.322957 79.4240838,229.022568 80.0680628,230.828405 C81.2486911,233.484047 82.5366492,236.139689 84.2539267,238.476654 C85.5418848,240.28249 87.0445026,241.875875 88.8691099,243.150584 C89.6204188,243.681712 90.4790576,244.106615 91.4450262,244.531518 L91.4450262,195.77393 C91.4450262,195.77393 90.908377,195.667704 90.4790576,195.561479 C90.0497382,195.455253 89.4057592,195.242802 89.4057592,195.242802 L89.4057592,134.906615 L89.4057592,82.4311284 L89.4057592,75.6326848 C89.4057592,72.7645914 91.4450262,70.4276265 91.4450262,70.4276265 C91.4450262,70.5338521 91.4450262,70.4276265 91.4450262,70.4276265 C91.4450262,69.577821 91.0157068,68.0906615 90.8010471,67.4533074 C90.0497382,65.4350195 89.0837696,63.4167315 88.117801,61.5046693 C87.473822,60.4424125 88.117801,61.5046693 87.473822,60.4424125 C85.7565445,57.6805447 82.7513089,52.6879377 80.9267016,50.0322957 C78.2434555,45.9957198 78.7801047,46.8455253 76.0968586,42.9151751 C75.1308901,41.5342412 73.1989529,38.6661479 72.2329843,37.1789883 C70.8376963,35.0544747 68.9057592,28.0435798 67.9397906,25.7066148 C65.0418848,27.8311284 60.5340314,31.2303502 57.6361257,33.3548638 C50.7670157,38.3474708 43.7905759,43.3400778 37.1361257,48.5451362 C32.7356021,51.944358 28.4424084,55.5560311 24.2565445,59.3801556 C20.3926702,62.8856031 16.3141361,66.8159533 12.7722513,71.0649805 C6.11780105,78.9256809 0.858638743,88.0610895 0.107329843,98.2587549 C7.37153394e-14,99.9583658 7.37153394e-14,101.657977 0.107329843,103.251362 C0.214659686,105.057198 0.429319372,106.756809 0.858638743,108.45642 C2.14659686,114.936187 5.04450262,120.566148 8.80104712,125.452529 C12.986911,130.976265 18.2460733,135.862646 23.6125654,140.536576 C24.578534,141.280156 25.4371728,142.129961 26.4031414,142.873541 C32.7356021,148.291051 39.1753927,153.602335 45.1858639,159.338521 C53.8795812,167.624125 61.8219895,176.865759 67.4031414,188.231907 C72.0183246,198.9607 73.5209424,210.645525 76.9554974,221.905447 L76.9554974,221.905447 Z" id="Shape" fill="url(#radialGradient-5)"></path>
                        <path d="M91.4450262,70.3214008 L91.4450262,70.3214008 C84.6832461,71.1712062 80.1753927,74.9953307 77.4921466,81.0501946 C75.0235602,86.4677043 73.7356021,92.5225681 70.0863874,97.4089494 C62.5732984,107.606615 43.039267,105.26965 40.0340314,119.29144 C35.6335079,139.899222 62.7879581,144.254475 70.7303665,158.594942 C76.6335079,169.111284 73.7356021,185.576265 84.8979058,193.012062 C86.6151832,194.180545 88.5471204,194.924125 90.4790576,195.455253 C91.2303665,195.667704 91.3376963,195.667704 91.552356,195.667704 C91.4450262,195.561479 91.4450262,70.3214008 91.4450262,70.3214008 L91.4450262,70.3214008 Z" id="Shape" fill="#FFFFFF"></path>
                        <path d="M91.4450262,195.667704 C91.1230366,195.561479 90.8010471,195.561479 90.3717277,195.455253 C88.4397906,194.924125 86.5078534,194.180545 84.7905759,193.012062 C73.6282723,185.576265 76.526178,169.111284 70.6230366,158.594942 C68.7984293,155.301946 65.7931937,152.433852 62.5732984,149.884436 C62.4659686,149.77821 62.3586387,149.671984 62.2513089,149.671984 C60.9633508,150.946693 59.0314136,152.964981 55.9188482,156.045525 C52.3769634,159.550973 49.1570681,163.693774 49.1570681,163.693774 L49.1570681,163.693774 C56.1335079,170.810895 62.2513089,178.777821 66.8664921,188.231907 C72.3403141,200.129183 73.7356021,213.194942 77.921466,225.623346 C79.4240838,230.191051 81.3560209,234.758755 84.1465969,238.582879 C85.9712042,241.02607 88.117801,243.150584 91.3376963,244.425292 L91.3376963,196.198833 L91.3376963,195.667704 L91.4450262,195.667704 L91.4450262,195.667704 L91.4450262,195.667704 Z" id="Shape" fill="url(#linearGradient-6)"></path>
                        <path d="M78.3507853,44.0836576 C79.5314136,45.3583658 81.0340314,46.951751 82.4293194,48.3326848 C84.1465969,50.0322957 85.6492147,51.6256809 87.5811518,53.4315175 C88.7617801,54.6 90.2643979,55.9809339 91.552356,57.1494163 L91.552356,39.7284047 L91.552356,19.970428 L91.552356,0.849805447 C90.6937173,0.637354086 89.2984293,0.531128405 87.5811518,0.637354086 C84.7905759,0.743579767 81.1413613,1.38093385 77.5994764,2.65564202 C74.8089005,3.71789883 72.0183246,5.09883268 69.7643979,7.01089494 C67.1884817,9.13540856 65.3638743,11.8972763 64.6125654,15.2964981 C63.8612565,18.9081712 64.3979058,23.2634241 66.8664921,28.4684825 C68.0471204,30.9116732 69.8717277,34.0984436 71.5890052,36.4354086 C71.6963351,36.5416342 72.9842932,38.0287938 73.7356021,38.8785992 C75.0235602,40.5782101 76.6335079,42.3840467 78.3507853,44.0836576 L78.3507853,44.0836576 Z" id="Shape" fill="url(#radialGradient-7)"></path>
                    </g>
                </g>
                <path d="M618.328467,111.93 C613.551095,110.22375 606.043796,108.17625 599.90146,108.17625 C592.735401,108.17625 587.275547,109.8825 587.275547,116.36625 C587.275547,131.38125 626.518248,122.1675 626.518248,153.5625 C626.518248,174.72 609.456204,182.91 590.005474,182.91 C581.133212,182.91 572.260949,181.545 564.071168,179.15625 L565.436131,160.72875 C565.436131,160.72875 578.062044,165.165 588.981752,165.165 C596.489051,165.165 602.631387,162.77625 602.631387,156.2925 C602.631387,139.9125 563.388686,150.49125 563.388686,119.4375 C563.388686,99.98625 579.768248,92.1375 597.854015,92.1375 C608.432482,92.1375 617.304745,94.185 622.423358,95.89125 L618.328467,111.93 L618.328467,111.93 Z M547.009124,111.93 C541.890511,110.22375 534.724453,108.17625 528.582117,108.17625 C521.416058,108.17625 515.956204,109.8825 515.956204,116.36625 C515.956204,131.38125 555.198905,122.1675 555.198905,153.5625 C555.198905,174.72 537.79562,182.91 518.686131,182.91 C509.813869,182.91 500.941606,181.545 492.410584,179.15625 L494.116788,160.72875 C494.116788,160.72875 507.083942,165.165 517.662409,165.165 C524.828467,165.165 531.312044,162.77625 531.312044,156.2925 C531.312044,139.9125 492.069343,150.49125 492.069343,119.4375 C492.069343,99.98625 508.790146,92.1375 526.534672,92.1375 C537.113139,92.1375 545.985401,94.185 551.445255,95.89125 L547.009124,111.93 L547.009124,111.93 Z M908.041971,91.11375 C925.104015,91.11375 935,100.3275 935,120.46125 L935,180.8625 L912.478102,180.8625 L912.478102,124.8975 C912.478102,115.68375 909.748175,109.8825 900.193431,109.8825 C890.638686,109.8825 882.107664,118.41375 882.107664,133.42875 L882.107664,180.8625 L859.927007,180.8625 L859.927007,124.8975 C859.927007,116.36625 857.19708,109.8825 847.642336,109.8825 C837.405109,109.8825 829.556569,119.09625 829.556569,134.4525 L829.556569,180.8625 L806.693431,180.8625 L806.693431,93.16125 C821.708029,91.455 827.509124,97.5975 827.850365,107.1525 C833.310219,97.25625 842.864964,91.11375 855.149635,91.11375 C870.846715,91.11375 877.330292,99.98625 879.377737,108.17625 C883.472628,99.30375 893.027372,91.11375 908.041971,91.11375 L908.041971,91.11375 L908.041971,91.11375 Z M446.001825,92.82 C441.224453,118.755 428.59854,160.04625 420.408759,180.52125 L396.521898,180.52125 L379.801095,121.82625 L379.459854,121.82625 L362.739051,180.52125 L338.85219,180.52125 C331.344891,160.04625 317.354015,117.73125 313.259124,92.82 L335.781022,92.82 L350.79562,153.22125 L351.136861,153.22125 L368.881387,92.82 L391.403285,92.82 L408.806569,152.88 L409.14781,152.88 L424.162409,92.82 L446.001825,92.82 L446.001825,92.82 Z M299.609489,111.93 C294.832117,110.22375 287.324818,108.17625 281.182482,108.17625 C274.016423,108.17625 268.89781,109.8825 268.89781,116.36625 C268.89781,131.38125 307.79927,122.1675 307.79927,153.5625 C307.79927,174.72 290.737226,182.91 271.286496,182.91 C262.414234,182.91 253.541971,181.545 245.35219,179.15625 L246.717153,160.72875 C246.717153,160.72875 259.684307,165.165 270.262774,165.165 C277.770073,165.165 283.912409,162.77625 283.912409,156.2925 C283.912409,139.9125 244.669708,150.49125 244.669708,119.4375 C244.669708,99.98625 261.04927,92.1375 279.135036,92.1375 C289.713504,92.1375 298.585766,94.185 303.70438,95.89125 L299.609489,111.93 L299.609489,111.93 Z M750.388686,182.56875 C725.478102,182.56875 708.074818,168.91875 708.074818,138.20625 C708.074818,110.90625 726.501825,91.11375 753.118613,91.11375 C778.029197,91.11375 794.067518,105.105 794.067518,134.79375 C794.067518,163.45875 776.664234,182.56875 750.388686,182.56875 L750.388686,182.56875 L750.388686,182.56875 Z M751.412409,110.565 C741.175182,110.565 731.620438,118.0725 731.620438,137.52375 C731.620438,154.245 737.762774,163.45875 751.071168,163.45875 C762.332117,163.45875 770.863139,154.245 770.863139,136.5 C770.863139,119.4375 764.720803,110.565 751.412409,110.565 L751.412409,110.565 L751.412409,110.565 Z M456.239051,180.8625 L478.760949,180.8625 L478.760949,93.16125 C468.182482,92.1375 456.239051,94.8675 456.239051,111.58875 L456.239051,180.8625 L456.239051,180.8625 Z M468.523723,81.9 C476.372263,81.9 482.855839,75.7575 482.855839,67.90875 C482.855839,60.40125 476.372263,54.25875 468.523723,54.25875 C461.016423,54.25875 454.532847,60.06 454.532847,67.90875 C454.532847,75.7575 461.016423,81.9 468.523723,81.9 L468.523723,81.9 L468.523723,81.9 Z M678.728102,182.2275 C652.793796,182.2275 635.731752,169.26 635.731752,138.20625 C635.731752,111.93 650.405109,91.455 682.481752,91.455 C689.306569,91.455 698.178832,92.82 703.979927,95.20875 L699.202555,113.63625 C694.083942,111.93 688.965328,110.565 683.164234,110.565 C666.784672,110.565 659.959854,121.14375 659.959854,137.52375 C659.959854,153.22125 666.10219,163.45875 682.140511,163.45875 C689.64781,163.45875 694.766423,161.7525 699.885036,159.705 L702.614964,177.79125 C697.837591,180.18 688.624088,182.2275 678.728102,182.2275 L678.728102,182.2275 Z" id="Wordmark" fill="#001155"></path>
            </g>
        </g>
    </g>
</svg>