<?xml version="1.0" encoding="UTF-8"?>
<svg width="273px" height="363px" viewBox="0 0 273 363" version="1.1" xmlns="http://www.w3.org/2000/svg" xmlns:xlink="http://www.w3.org/1999/xlink">
    <!-- Generator: Sketch 58 (84663) - https://sketch.com -->
    <title>Swisscom / Lifeform</title>
    <desc>Created with Sketch.</desc>
    <defs>
        <radialGradient cx="11.2371377%" cy="22.445886%" fx="11.2371377%" fy="22.445886%" r="138.013645%" gradientTransform="translate(0.112371,0.224459),scale(1.000000,0.636757),translate(-0.112371,-0.224459)" id="radialGradient-1">
            <stop stop-color="#42B4F3" stop-opacity="0.9804" offset="0%"></stop>
            <stop stop-color="#003A80" offset="100%"></stop>
        </radialGradient>
        <radialGradient cx="86.9254535%" cy="42.5123278%" fx="86.9254535%" fy="42.5123278%" r="83.7503688%" gradientTransform="translate(0.869255,0.425123),scale(1.000000,0.563925),translate(-0.869255,-0.425123)" id="radialGradient-2">
            <stop stop-color="#5BC0FF" stop-opacity="0.9804" offset="0%"></stop>
            <stop stop-color="#003789" offset="100%"></stop>
        </radialGradient>
        <radialGradient cx="71.1760154%" cy="27.916907%" fx="71.1760154%" fy="27.916907%" r="134.814611%" gradientTransform="translate(0.711760,0.279169),scale(1.000000,0.456247),translate(-0.711760,-0.279169)" id="radialGradient-3">
            <stop stop-color="#5FC7FF" offset="0%"></stop>
            <stop stop-color="#003785" stop-opacity="0.9804" offset="100%"></stop>
        </radialGradient>
        <radialGradient cx="46.7925858%" cy="19.8566318%" fx="46.7925858%" fy="19.8566318%" r="113.676922%" gradientTransform="translate(0.467926,0.198566),scale(1.000000,0.853423),translate(-0.467926,-0.198566)" id="radialGradient-4">
            <stop stop-color="#EC0A1C" offset="0%"></stop>
            <stop stop-color="#BB0E15" offset="100%"></stop>
        </radialGradient>
        <radialGradient cx="29.8243147%" cy="20.3845518%" fx="29.8243147%" fy="20.3845518%" r="162.326387%" gradientTransform="translate(0.298243,0.203846),scale(1.000000,0.417259),translate(-0.298243,-0.203846)" id="radialGradient-5">
            <stop stop-color="#EC0A1C" offset="0%"></stop>
            <stop stop-color="#9E0D18" offset="100%"></stop>
        </radialGradient>
        <linearGradient x1="58.1628441%" y1="100.995852%" x2="46.2495245%" y2="-0.025896861%" id="linearGradient-6">
            <stop stop-color="#320000" offset="0%"></stop>
            <stop stop-color="#5D0000" offset="100%"></stop>
        </linearGradient>
        <radialGradient cx="94.0234998%" cy="91.8759156%" fx="94.0234998%" fy="91.8759156%" r="201.584011%" gradientTransform="translate(0.940235,0.918759),scale(1.000000,0.481326),translate(-0.940235,-0.918759)" id="radialGradient-7">
            <stop stop-color="#003789" offset="0%"></stop>
            <stop stop-color="#5FC7FF" stop-opacity="0.9804" offset="100%"></stop>
        </radialGradient>
    </defs>
    <g id="Showcase" stroke="none" stroke-width="1" fill="none" fill-rule="evenodd">
        <g id="Artboard" transform="translate(-705.000000, -1138.000000)">
            <g id="Swisscom-/-Lifeform" transform="translate(705.000000, 1138.000000)">
                <g id="Swisscom_Lifeform">
                    <path d="M75.8968586,298.706615 C79.1842932,301.680934 82.6146597,304.513619 86.1879581,307.063035 C88.617801,308.762646 91.1905759,310.462257 93.7633508,312.020233 C97.1937173,314.144747 100.767016,316.127626 104.340314,317.968872 C109.2,320.518288 116.918325,323.91751 121.77801,325.900389 C120.777487,324.342412 120.062827,323.350973 119.062304,321.651362 C116.632461,318.960311 114.34555,316.269261 112.201571,312.58677 C110.486387,309.612451 108.771204,306.071595 107.198953,301.256031 C106.198429,298.281712 105.054974,294.88249 104.05445,291.2 C103.339791,288.650584 102.625131,285.959533 102.053403,282.985214 C101.910471,282.418677 101.481675,280.294163 101.338743,279.727626 C100.767016,276.753307 100.195288,274.062257 99.4806283,271.371206 C98.9089005,268.680156 98.1942408,266.130739 97.3366492,263.581323 C95.9073298,259.47393 94.4780105,255.649805 92.7628272,251.967315 C90.7617801,247.435019 88.617801,243.185992 86.1879581,239.361868 C84.6157068,236.812451 80.6136126,231.43035 78.7554974,229.164202 C77.326178,227.464591 76.1827225,226.048249 74.8963351,224.631907 C73.8958115,223.640467 72.895288,222.507393 71.7518325,221.091051 C70.3225131,219.533074 68.7502618,217.975097 67.3209424,216.558755 C67.1780105,216.417121 67.3209424,216.558755 67.0350785,216.700389 C64.0335079,220.524514 61.317801,224.348638 59.0308901,228.456031 C57.1727749,231.713619 55.6005236,235.11284 54.4570681,238.653696 C53.7424084,240.636576 53.3136126,242.619455 52.8848168,244.743969 C52.4560209,246.868482 52.313089,248.992996 52.1701571,251.11751 C52.0272251,253.80856 52.1701571,256.499611 52.5989529,259.332296 C53.0277487,262.164981 53.7424084,265.1393 54.8858639,268.255253 C56.1722513,271.796109 57.8874346,275.336965 60.0314136,279.019455 C60.3172775,279.444358 60.6031414,280.010895 60.8890052,280.435798 C64.7481675,287.234241 70.0366492,293.182879 75.8968586,298.706615 L75.8968586,298.706615 Z" id="Shape" fill="url(#radialGradient-1)"></path>
                    <path d="M121.77801,363.00856 C128.35288,362.442023 135.356545,361.592218 142.503141,360.31751 C151.364921,358.759533 160.369634,356.493385 169.517277,353.6607 C177.235602,351.252918 184.810995,348.420233 192.386387,345.162646 C199.104188,342.188327 205.679058,338.930739 211.968063,335.389883 C220.115183,330.715953 227.97644,325.333852 234.980105,319.385214 C243.127225,312.445136 250.273822,304.796887 256.134031,296.298833 C262.280105,287.375875 266.853927,277.461479 269.712565,266.697276 C271.284817,260.748638 272.142408,254.658366 272.428272,248.143191 C272.714136,240.919844 271.999476,233.979767 270.284293,227.181323 C267.997382,218.116732 263.995288,209.335409 258.563874,200.837354 C251.846073,190.073152 242.841361,179.733852 232.550262,169.677821 C222.11623,159.338521 210.25288,149.28249 197.674869,139.084825 C189.956545,132.852918 182.095288,126.621012 174.091099,120.247471 C167.945026,115.431907 161.798953,110.474708 155.509948,105.375875 C148.649215,99.7105058 141.788482,94.0451362 135.070681,88.2381323 C129.210471,82.9976654 123.493194,77.8988327 117.918848,72.6583658 C116.060733,70.9587549 114.34555,69.1175097 112.487435,67.4178988 C106.770157,61.7525292 101.195812,55.6622568 95.3356021,48.8638132 C98.6230366,53.6793774 103.768586,60.9027237 108.771204,68.2677043 C112.201571,73.5081712 115.631937,78.7486381 118.06178,83.4225681 C119.205236,85.5470817 120.062827,87.6715953 120.777487,89.5128405 C121.349215,91.2124514 121.77801,92.6287938 121.77801,93.9035019 L121.77801,100.560311 L121.77801,154.522957 L121.77801,199.279377 L121.77801,257.207782 L121.77801,328.024903 C121.77801,347.003891 121.77801,363.00856 121.77801,363.00856 L121.77801,363.00856 Z" id="Shape" fill="url(#radialGradient-2)"></path>
                    <path d="M121.77801,325.900389 C121.77801,325.900389 134.070157,311.595331 137.500524,307.487938 C139.787435,304.796887 144.932984,298.281712 149.79267,292.049805 C154.509424,285.959533 158.940314,280.152529 160.369634,278.311284 C160.941361,277.461479 168.659686,266.555642 169.374346,265.564202 C173.090576,260.323735 170.374869,264.006226 172.518848,261.315175 C173.37644,260.040467 173.805236,259.757198 179.236649,251.542412 C179.808377,250.692607 180.808901,248.992996 181.666492,247.718288 C182.095288,246.868482 186.66911,239.645136 187.097906,239.078599 C187.955497,237.662257 188.813089,236.245914 189.527749,234.971206 C191.671728,231.147082 193.243979,228.172763 194.959162,225.056809 C198.818325,217.975097 200.819372,214.575875 204.249738,207.069261 C206.679581,201.828794 209.395288,195.738521 211.110471,191.206226 C212.396859,188.090272 214.254974,183.133074 215.112565,180.442023 C215.827225,178.600778 217.399476,173.64358 218.4,170.527626 C220.115183,164.720623 221.115707,160.896498 221.401571,159.338521 C221.544503,158.771984 220.543979,155.089494 220.543979,155.089494 C216.541885,151.690272 210.967539,146.874708 207.251309,143.900389 C205.82199,142.625681 194.673298,133.561089 192.815183,132.003113 C185.668586,126.196109 175.234555,117.839689 167.659162,111.749416 C159.797906,105.51751 154.93822,101.551751 147.648691,95.6031128 C121.063351,73.9330739 108.056545,59.3447471 94.0492147,46.7392996 C101.05288,62.4607004 118.919372,84.9805447 118.919372,100.560311 L118.919372,121.238911 L118.919372,147.016342 L118.919372,176.192996 L118.919372,208.343969 L118.919372,232.846693 L118.919372,242.336187 L118.919372,321.509728 C118.919372,321.651362 119.919895,323.067704 121.77801,325.900389 L121.77801,325.900389 Z" id="Shape" fill="url(#radialGradient-3)"></path>
                    <path d="M139.215707,91.7789883 C140.502094,92.9120623 141.502618,93.7618677 144.504188,96.1696498 C145.790576,97.1610895 148.935079,99.8521401 150.078534,100.84358 C152.365445,102.684825 160.655497,109.341634 161.513089,110.19144 C161.798953,110.474708 162.370681,110.899611 163.08534,111.466148 C167.802094,115.290272 180.094241,125.063035 183.810471,128.037354 C183.810471,128.037354 183.953403,128.178988 184.239267,128.462257 C187.097906,130.728405 201.391099,142.200778 208.537696,148.149416 C215.112565,153.673152 220.829843,158.913619 221.401571,159.338521 C222.83089,152.823346 223.831414,146.449805 224.546073,140.501167 C225.403665,132.144747 225.546597,124.21323 224.831937,116.989883 C223.831414,104.52607 220.686911,93.6202335 216.256021,84.1307393 C211.825131,74.6412451 205.964921,66.7097276 199.24712,60.0529183 C198.532461,59.3447471 197.817801,58.6365759 197.103141,58.0700389 C193.101047,54.3875486 188.956021,51.1299611 184.382199,48.2972763 C179.951309,45.4645914 175.234555,43.0568093 170.374869,40.9322957 C161.656021,37.3914397 152.937173,35.2669261 145.075916,34.7003891 C135.499476,33.9922179 126.637696,35.5501946 120.920419,38.6661479 C119.776963,39.2326848 118.77644,39.6575875 118.77644,39.6575875 L118.77644,53.3961089 L118.77644,73.7914397 C119.062304,74.0747082 121.492147,76.1992218 121.492147,76.340856 C125.780105,80.3066148 130.925654,84.9805447 133.498429,87.2466926 C135.642408,88.663035 137.357592,90.2210117 139.215707,91.7789883 L139.215707,91.7789883 Z" id="Shape" fill="url(#radialGradient-4)"></path>
                    <path d="M102.482199,295.87393 C102.910995,297.431907 103.482723,299.131518 104.05445,300.689494 C104.912042,303.097276 105.769634,305.363424 106.627225,307.771206 C108.199476,311.312062 109.91466,314.852918 112.201571,317.968872 C113.916754,320.376654 115.917801,322.501167 118.347644,324.200778 C119.348168,324.908949 120.491623,325.475486 121.77801,326.042023 L121.77801,261.031907 C121.77801,261.031907 121.063351,260.890272 120.491623,260.748638 C119.919895,260.607004 119.062304,260.323735 119.062304,260.323735 L119.062304,179.875486 L119.062304,109.908171 L119.062304,100.84358 C119.062304,97.0194553 121.77801,93.9035019 121.77801,93.9035019 C121.77801,94.0451362 121.77801,93.9035019 121.77801,93.9035019 C121.77801,92.770428 121.206283,90.7875486 120.920419,89.9377432 C119.919895,87.2466926 118.633508,84.555642 117.34712,82.0062257 C116.489529,80.5898833 117.34712,82.0062257 116.489529,80.5898833 C114.202618,76.907393 110.200524,70.2505837 107.770681,66.7097276 C104.197382,61.3276265 104.912042,62.4607004 101.338743,57.2202335 C100.052356,55.3789883 97.4795812,51.5548638 96.1931937,49.5719844 C94.3350785,46.7392996 91.7623037,37.3914397 90.4759162,34.2754864 C86.6167539,37.1081712 80.6136126,41.6404669 76.7544503,44.4731518 C67.6068063,51.1299611 58.3162304,57.7867704 49.4544503,64.7268482 C43.5942408,69.259144 37.8769634,74.0747082 32.3026178,79.1735409 C27.1570681,83.8474708 21.7256545,89.0879377 17.0089005,94.7533074 C8.14712042,105.234241 1.1434555,117.414786 0.142931937,131.011673 C9.81645321e-14,133.277821 9.81645321e-14,135.543969 0.142931937,137.668482 C0.285863874,140.076265 0.571727749,142.342412 1.1434555,144.60856 C2.85863874,153.248249 6.71780105,160.754864 11.7204188,167.270039 C17.2947644,174.635019 24.2984293,181.150195 31.4450262,187.382101 C32.7314136,188.373541 33.8748691,189.506615 35.1612565,190.498054 C43.5942408,197.721401 52.1701571,204.803113 60.1743455,212.451362 C71.7518325,223.498833 82.3287958,235.821012 89.7612565,250.975875 C95.9073298,265.280934 97.908377,280.8607 102.482199,295.87393 L102.482199,295.87393 Z" id="Shape" fill="url(#radialGradient-5)"></path>
                    <path d="M121.77801,93.7618677 L121.77801,93.7618677 C112.773298,94.8949416 106.770157,99.9937743 103.196859,108.066926 C99.9094241,115.290272 98.1942408,123.363424 93.334555,129.878599 C83.3293194,143.475486 57.3157068,140.359533 53.3136126,159.055253 C47.4534031,186.532296 83.6151832,192.3393 94.1921466,211.459922 C102.053403,225.481712 98.1942408,247.435019 113.059162,257.349416 C115.346073,258.907393 117.918848,259.898833 120.491623,260.607004 C121.492147,260.890272 121.635079,260.890272 121.920942,260.890272 C121.77801,260.748638 121.77801,93.7618677 121.77801,93.7618677 L121.77801,93.7618677 Z" id="Shape" fill="#FFFFFF"></path>
                    <path d="M121.77801,260.890272 C121.349215,260.748638 120.920419,260.748638 120.348691,260.607004 C117.775916,259.898833 115.203141,258.907393 112.91623,257.349416 C98.0513089,247.435019 101.910471,225.481712 94.0492147,211.459922 C91.6193717,207.069261 87.6172775,203.245136 83.3293194,199.845914 C83.1863874,199.70428 83.0434555,199.562646 82.9005236,199.562646 C81.1853403,201.262257 78.6125654,203.953307 74.4675393,208.0607 C69.7507853,212.73463 65.4628272,218.258366 65.4628272,218.258366 L65.4628272,218.258366 C74.7534031,227.74786 82.9005236,238.370428 89.0465969,250.975875 C96.3361257,266.838911 98.1942408,284.259922 103.768586,300.831128 C105.769634,306.921401 108.342408,313.011673 112.058639,318.110506 C114.488482,321.368093 117.34712,324.200778 121.635079,325.900389 L121.635079,261.598444 L121.635079,260.890272 L121.77801,260.890272 L121.77801,260.890272 L121.77801,260.890272 Z" id="Shape" fill="url(#linearGradient-6)"></path>
                    <path d="M104.340314,58.7782101 C105.912565,60.477821 107.913613,62.6023346 109.771728,64.4435798 C112.058639,66.7097276 114.059686,68.8342412 116.632461,71.2420233 C118.204712,72.8 120.205759,74.6412451 121.920942,76.1992218 L121.920942,52.9712062 L121.920942,26.6272374 L121.920942,1.13307393 C120.777487,0.849805447 118.919372,0.708171206 116.632461,0.849805447 C112.91623,0.991439689 108.056545,1.84124514 103.339791,3.54085603 C99.6235602,4.95719844 95.9073298,6.79844358 92.9057592,9.34785992 C89.4753927,12.1805447 87.0455497,15.863035 86.0450262,20.3953307 C85.0445026,25.2108949 85.7591623,31.0178988 89.0465969,37.9579767 C90.6188482,41.2155642 93.0486911,45.4645914 95.3356021,48.5805447 C95.478534,48.722179 97.1937173,50.7050584 98.1942408,51.8381323 C99.9094241,54.1042802 102.053403,56.5120623 104.340314,58.7782101 L104.340314,58.7782101 Z" id="Shape" fill="url(#radialGradient-7)"></path>
                </g>
            </g>
        </g>
    </g>
</svg>