<?xml version="1.0" encoding="utf-8"?>
<!-- Generator: Adobe Illustrator 19.0.1, SVG Export Plug-In . SVG Version: 6.00 Build 0)  -->
<svg version="1.1" id="Layer_1" xmlns="http://www.w3.org/2000/svg" xmlns:xlink="http://www.w3.org/1999/xlink" x="0px" y="0px"
	 width="100px" height="100px" viewBox="0 0 100 100" style="enable-background:new 0 0 100 100;" xml:space="preserve">
<style type="text/css">
	.st0{fill:#333333;}
	.st1{opacity:0.5;}
</style>
<g>
	<path class="st0" d="M72.2,31.1c3.4,1.2,6.4,3.6,8.1,7.9c1.1,2.7,1.4,5.9,0.9,8.7c-0.4,2.2-1.5,5.2-4.5,7.1l-1.8,1.1l1.8,0.9
		c6.4,3.3,6.9,10.2,6.9,12.2c0,6.1-3.2,9.9-5.9,12c-3.5,2.8-8.4,4.5-13.4,4.5c-7.4,0-13.6-3.2-17.3-8.8l7.5-7
		c2.2,2.6,5.5,4.2,9.2,4.2c4.8,0,8.2-2.2,8.2-5.7c0-4.5-3.8-6.2-7.3-6.2H57V52h7.5c1.9,0,3.5-0.9,4.4-2.6c1-1.9,1-4.3-0.1-5.9
		c-1.1-1.7-2.9-2.9-5.1-3.1L10.5,100h70C91,100,100,91.6,100,81.1v-81L72.2,31.1z"/>
	<g class="st1">
		<path class="st0" d="M10.5,100.1l89.3-100L0,55.9C17,73.4,13.7,95.2,10.5,100.1z"/>
	</g>
</g>
</svg>
